<svg width="36" height="10" viewBox="0 0 36 10" fill="none" xmlns="http://www.w3.org/2000/svg">
<path d="M0.0391477 10V0.199999H1.91515L7.69715 7.256H6.78715V0.199999H9.02715V10H7.16515L1.36915 2.944H2.27915V10H0.0391477ZM13.6318 4.148H18.3498V5.912H13.6318V4.148ZM13.7998 8.18H19.1338V10H11.5458V0.199999H18.9518V2.02H13.7998V8.18ZM23.3536 10L20.1476 0.199999H22.4996L25.2856 8.88H24.1096L27.0216 0.199999H29.1216L31.9216 8.88H30.7876L33.6436 0.199999H35.8136L32.6076 10H30.1716L27.6936 2.384H28.3376L25.7896 10H23.3536Z" fill="white"/>
</svg>
